<svg width="910" height="204" viewBox="0 0 910 204" fill="none" xmlns="http://www.w3.org/2000/svg">
<circle cx="25.1995" cy="170.096" r="25.1995" fill="#F4F7BC"/>
<path d="M168.372 91.7548C184.598 102.46 195.306 120.853 195.306 141.747C195.306 174.8 168.51 201.596 135.457 201.596C104.832 201.596 79.5792 178.592 76.0342 148.922C81.9456 150.406 88.133 151.197 94.5049 151.197C130.711 151.197 160.972 125.744 168.372 91.7548ZM94.5049 -6.10352e-05C136.257 -2.79289e-05 170.104 33.8468 170.104 75.5986C170.103 81.1437 169.505 86.5493 168.372 91.7548C158.929 85.5248 147.617 81.8984 135.457 81.8984C102.404 81.8984 75.6084 108.693 75.6084 141.747C75.6084 144.175 75.7531 146.569 76.0342 148.922C43.211 140.68 18.9064 110.978 18.9062 75.5986C18.9062 33.8467 52.753 -6.10352e-05 94.5049 -6.10352e-05Z" fill="#F4F7BC"/>
<path d="M876.513 82.0546V103.433H903.146V114.304H876.513V175.361C876.513 180.192 877.6 183.574 879.774 185.507C881.948 187.439 885.33 188.406 889.92 188.406C892.456 188.406 895.114 188.104 897.892 187.5C900.67 186.775 903.206 185.809 905.501 184.601L907.856 190.217C904.474 193.962 900.247 196.921 895.174 199.095C890.222 201.269 884.666 202.356 878.506 202.356C871.258 202.356 865.461 200.545 861.113 196.921C856.885 193.177 854.771 187.137 854.771 178.803V114.304H841.727V107.419C846.8 104.762 851.752 101.32 856.583 97.0923C861.415 92.8648 865.884 87.8522 869.99 82.0546H876.513Z" fill="#F4F7BC"/>
<path d="M789.395 187.32C792.898 187.32 796.038 186.837 798.816 185.871C801.594 184.784 804.493 183.153 807.513 180.979V149.273L786.315 157.426C782.933 158.634 780.336 160.506 778.524 163.043C776.713 165.458 775.807 168.357 775.807 171.739C775.807 176.691 776.954 180.556 779.249 183.335C781.665 185.992 785.047 187.32 789.395 187.32ZM829.435 134.779C829.435 135.866 829.375 138.403 829.254 142.388C829.254 146.374 829.194 150.723 829.073 155.433C829.073 160.023 829.013 164.371 828.892 168.478C828.892 172.585 828.892 175.363 828.892 176.812C828.892 180.436 829.496 183.274 830.703 185.327C831.911 187.26 833.784 188.226 836.32 188.226C837.165 188.226 838.434 188.166 840.125 188.045C841.816 187.804 843.326 187.502 844.654 187.139L845.741 192.937C842.722 195.957 839.46 198.312 835.958 200.003C832.455 201.573 828.831 202.358 825.087 202.358C820.256 202.358 816.451 200.848 813.673 197.829C811.016 194.688 809.143 190.702 808.056 185.871C804.916 189.615 800.87 193.299 795.917 196.923C790.965 200.426 785.047 202.177 778.162 202.177C770.19 202.177 764.091 199.761 759.863 194.93C755.756 190.098 753.703 184.24 753.703 177.356C753.703 169.022 756.36 163.043 761.675 159.419C766.989 155.675 772.666 152.776 778.706 150.723L807.513 140.395V130.793C807.513 124.875 806.365 120.104 804.07 116.48C801.896 112.857 797.85 111.045 791.932 111.045C787.463 111.045 784.141 112.132 781.967 114.306C779.793 116.48 778.706 119.62 778.706 123.727C778.706 125.418 778.766 127.109 778.887 128.8C779.128 130.37 779.491 132.122 779.974 134.054L764.03 136.41C762.339 135.202 761.071 133.752 760.226 132.061C759.38 130.25 758.957 128.136 758.957 125.72C758.957 117.869 762.4 111.89 769.284 107.784C776.169 103.677 784.805 101.624 795.193 101.624C806.305 101.624 814.76 104.281 820.558 109.595C826.476 114.789 829.435 123.184 829.435 134.779Z" fill="#F4F7BC"/>
<path d="M715.35 101.261V130.974C720.544 119.983 724.952 112.373 728.576 108.146C732.2 103.798 736.91 101.624 742.708 101.624C744.278 101.624 745.667 101.865 746.875 102.348C748.083 102.831 749.049 103.375 749.774 103.979V123.908H745.788C740.232 123.908 735.098 124.633 730.388 126.083C725.677 127.532 720.665 131.156 715.35 136.953V181.704C715.35 186.052 716.558 188.77 718.974 189.857C721.51 190.823 725.858 191.669 732.018 192.393V200.546H680.383V192.393C684.369 191.91 687.509 191.125 689.804 190.038C692.22 188.83 693.428 186.173 693.428 182.066V123.003L681.289 115.212V110.682L710.096 101.261H715.35Z" fill="#F4F7BC"/>
<path d="M640.188 202.358V184.603C636.082 188.83 631.311 192.877 625.875 196.742C620.561 200.486 614.099 202.358 606.489 202.358C598.517 202.358 592.176 200.003 587.466 195.292C582.755 190.461 580.4 182.791 580.4 172.283V124.814C580.4 121.795 579.735 119.56 578.407 118.111C577.199 116.661 574.662 115.635 570.797 115.031L567.898 114.487V107.059L598.699 101.624H602.503V169.565C602.503 175.484 603.711 179.892 606.127 182.791C608.543 185.569 612.347 186.958 617.541 186.958C621.889 186.958 625.936 186.233 629.68 184.784C633.545 183.214 637.048 181.402 640.188 179.349V124.814C640.188 121.795 639.524 119.56 638.195 118.111C636.987 116.661 634.451 115.635 630.586 115.031L627.868 114.487V107.059L658.306 101.624H662.292V178.986C662.292 182.006 662.835 184.12 663.922 185.327C665.13 186.535 667.606 187.32 671.351 187.683L675.88 188.045V196.198L644.174 202.358H640.188Z" fill="#F4F7BC"/>
<path d="M500.677 148.729L528.579 122.096C529.545 121.13 530.33 120.224 530.934 119.379C531.659 118.412 532.021 117.506 532.021 116.661C532.021 115.091 531.115 114.004 529.303 113.4C527.492 112.796 524.049 112.131 518.976 111.407V103.435H562.097V111.407C558.594 112.252 555.695 113.158 553.4 114.124C551.226 115.091 549.112 116.54 547.059 118.473L522.056 141.845L565.72 194.205V200.546H542.348L500.677 148.729ZM499.047 62.67V182.066C499.047 186.173 500.194 188.83 502.489 190.038C504.905 191.125 508.106 191.91 512.092 192.393V200.546H463.898V192.393C468.005 191.91 471.206 191.125 473.501 190.038C475.917 188.83 477.124 186.173 477.124 182.066V83.5054L464.804 75.7148V71.1854L494.155 62.67H499.047Z" fill="#F4F7BC"/>
<path d="M395.107 148.729L423.008 122.096C423.975 121.13 424.76 120.224 425.364 119.379C426.088 118.412 426.451 117.506 426.451 116.661C426.451 115.091 425.545 114.004 423.733 113.4C421.921 112.796 418.479 112.131 413.406 111.407V103.435H456.526V111.407C453.023 112.252 450.125 113.158 447.83 114.124C445.656 115.091 443.542 116.54 441.489 118.473L416.486 141.845L460.15 194.205V200.546H436.778L395.107 148.729ZM393.477 62.67V182.066C393.477 186.173 394.624 188.83 396.919 190.038C399.335 191.125 402.535 191.91 406.521 192.393V200.546H358.328V192.393C362.435 191.91 365.636 191.125 367.931 190.038C370.346 188.83 371.554 186.173 371.554 182.066V83.5054L359.234 75.7148V71.1854L388.585 62.67H393.477Z" fill="#F4F7BC"/>
<path d="M315.135 176.812L307.888 159.6H257.158L250.455 176.63C249.972 177.959 249.489 179.288 249.005 180.616C248.643 181.824 248.462 182.911 248.462 183.878C248.462 186.656 249.609 188.649 251.904 189.856C254.199 191.064 258.306 191.729 264.224 191.849V200.546H223.641V191.849C226.056 191.487 228.17 190.883 229.982 190.038C231.914 189.192 233.364 187.561 234.33 185.146L275.639 84.9547L269.841 72.0911H295.025L343.761 185.146C344.728 187.441 346.056 189.071 347.747 190.038C349.559 190.883 351.793 191.487 354.451 191.849V200.546H301.547V191.849C307.465 191.729 311.512 191.125 313.686 190.038C315.981 188.83 317.128 186.837 317.128 184.059C317.128 182.972 316.947 181.824 316.585 180.616C316.222 179.408 315.739 178.14 315.135 176.812ZM282.161 97.4559L260.963 150.179H304.083L282.161 97.4559Z" fill="#F4F7BC"/>
</svg>
