<svg width="446" height="226" viewBox="0 0 446 226" fill="none" xmlns="http://www.w3.org/2000/svg">
<circle cx="28.1604" cy="190.083" r="28.1604" fill="#F4F7BC"/>
<path d="M188.144 102.542C206.272 114.506 218.233 135.057 218.233 158.402C218.233 195.34 188.29 225.283 151.353 225.283C117.128 225.283 88.9077 199.576 84.9473 166.418C91.5564 168.078 98.4744 168.963 105.599 168.963C146.057 168.963 179.872 140.521 188.144 102.542ZM105.599 0C152.256 0.000183909 190.079 37.8238 190.079 84.4814C190.079 90.6803 189.411 96.723 188.144 102.542C177.589 95.5764 164.944 91.5216 151.353 91.5215C114.415 91.5215 84.4707 121.465 84.4707 158.402C84.4707 161.115 84.6334 163.79 84.9473 166.418C48.2724 157.204 21.1173 124.015 21.1172 84.4814C21.1172 37.8237 58.9409 0 105.599 0Z" fill="#F4F7BC"/>
<path d="M428.616 224.41C423.895 224.41 420.176 222.872 417.458 219.796C414.812 216.721 413.488 212.286 413.488 206.492V172.911H405.656V171.195C410.305 169.478 414.668 167.01 418.745 163.792C422.894 160.573 426.327 156.746 429.045 152.312H431.298L431.405 204.776C431.405 207.637 432.013 209.997 433.229 211.857C434.445 213.645 436.09 214.539 438.165 214.539C439.166 214.539 440.167 214.325 441.169 213.895C442.242 213.395 443.386 212.715 444.602 211.857L445.997 212.179C444.423 215.827 442.17 218.795 439.238 221.084C436.377 223.301 432.836 224.41 428.616 224.41ZM405.656 171.195L416.385 168.834H445.782V172.911H405.656V171.195Z" fill="#F4F7BC"/>
<path d="M372.325 224.195C369.535 224.195 366.924 223.551 364.492 222.264C362.132 220.905 360.272 219.117 358.913 216.899C357.554 214.611 356.875 212.036 356.875 209.175C356.875 205.241 358.162 201.879 360.737 199.089C363.312 196.228 366.996 194.297 371.788 193.296C376.58 192.295 382.088 192.509 388.311 193.94L389.383 196.944C386.022 196.228 383.089 196.193 380.586 196.836C378.154 197.409 376.258 198.589 374.899 200.377C373.612 202.165 372.968 204.418 372.968 207.136C372.968 209.783 373.54 212.036 374.685 213.895C375.901 215.683 377.546 216.578 379.62 216.578C381.265 216.578 382.732 216.077 384.019 215.075C385.378 214.003 386.344 212.894 386.916 211.75L389.491 208.96C389.205 211.106 388.311 213.359 386.808 215.719C385.378 218.08 383.411 220.082 380.908 221.727C378.404 223.372 375.543 224.195 372.325 224.195ZM358.592 184.927C359.378 182.066 360.773 179.384 362.776 176.881C364.85 174.377 367.461 172.339 370.608 170.765C373.827 169.12 377.51 168.262 381.659 168.19C386.022 168.119 389.848 168.906 393.139 170.551C396.429 172.196 398.968 174.485 400.756 177.417C402.544 180.278 403.438 183.39 403.438 186.751V209.818C403.438 211.463 403.617 212.787 403.975 213.788C404.332 214.789 404.94 215.29 405.799 215.29C406.442 215.29 406.943 215.147 407.301 214.861L408.052 215.505C407.479 217.936 406.085 220.011 403.867 221.727C401.722 223.372 399.182 224.195 396.25 224.195C393.103 224.195 390.564 223.265 388.632 221.405C386.701 219.546 385.736 217.221 385.736 214.432V187.073C385.736 183.783 384.698 181.28 382.624 179.563C380.55 177.775 377.904 176.881 374.685 176.881C372.11 176.881 369.571 177.56 367.067 178.919C364.564 180.207 362.347 182.317 360.416 185.249L358.592 184.927Z" fill="#F4F7BC"/>
<path d="M309.555 223.229V221.513C311.7 221.012 313.453 220.154 314.812 218.938C316.171 217.722 316.85 215.469 316.85 212.179V179.885C316.85 176.595 316.171 174.342 314.812 173.126C313.453 171.91 311.7 171.052 309.555 170.551V168.834H316.85H334.767V212.179C334.767 215.469 335.411 217.722 336.699 218.938C338.058 220.154 339.846 221.012 342.063 221.513V223.229H334.767H316.85H309.555ZM334.016 190.185C334.517 185.679 335.805 181.673 337.879 178.168C339.953 174.592 342.635 171.91 345.925 170.122C349.287 168.334 352.899 167.797 356.762 168.512L354.079 184.82H352.899C349.895 183.39 347.07 182.996 344.423 183.64C341.777 184.212 339.56 185.679 337.772 188.039C335.983 190.399 334.982 193.439 334.767 197.158L334.016 190.185Z" fill="#F4F7BC"/>
<path d="M265.247 223.873C262.1 223.873 259.239 223.194 256.664 221.835C254.089 220.476 252.015 218.473 250.441 215.826C248.939 213.108 248.188 209.925 248.188 206.278V179.885C248.188 176.595 247.509 174.341 246.15 173.126C244.862 171.91 243.146 171.051 241 170.551V168.834H248.188H266.106V203.81C266.106 206.957 266.785 209.246 268.144 210.677C269.503 212.107 271.327 212.858 273.616 212.93C275.261 212.93 276.906 212.608 278.551 211.964C280.268 211.32 281.841 210.39 283.272 209.174L284.237 210.891C282.521 214.467 280.017 217.543 276.727 220.118C273.508 222.621 269.682 223.873 265.247 223.873ZM287.241 223.229C284.881 220.654 283.2 217.543 282.199 213.895V179.885C282.199 176.595 281.662 174.341 280.589 173.126C279.517 171.91 278.122 171.051 276.405 170.551V168.834H282.199H300.009V212.179C300.009 215.397 300.688 217.65 302.047 218.938C303.406 220.154 305.159 221.012 307.304 221.513V223.229H300.009H287.241Z" fill="#F4F7BC"/>
<path d="M385.248 119.475L399.41 110.248L415.61 137.822C417.255 140.54 418.9 142.471 420.546 143.615C422.191 144.688 423.979 145.475 425.91 145.975H426.125V147.692H419.795H400.053L385.248 119.475ZM358.533 147.692V145.975C360.75 145.475 362.502 144.616 363.79 143.401C365.149 142.185 365.828 139.932 365.828 136.641V82.3534C365.828 79.1347 365.149 76.989 363.79 75.9161C362.502 74.8432 360.714 74.271 358.426 74.1994L358.211 72.4828L365.399 71.3027L383.746 68.2986V136.641C383.746 139.932 384.389 142.185 385.677 143.401C387.036 144.616 388.824 145.475 391.041 145.975V147.692H383.746H365.828H358.533ZM385.14 119.368L399.946 106.493C401.448 105.277 402.485 104.204 403.058 103.275C403.63 102.273 403.916 101.379 403.916 100.592C403.916 99.1619 403.058 98.089 401.341 97.3738C399.696 96.587 397.622 96.0148 395.118 95.6572L393.402 95.4426V93.2968H410.031H421.94V93.8332L387.608 123.123L385.14 119.368Z" fill="#F4F7BC"/>
<path d="M320.459 119.475L334.621 110.248L350.821 137.822C352.466 140.54 354.111 142.471 355.757 143.615C357.402 144.688 359.19 145.475 361.121 145.975H361.336V147.692H355.005H335.264L320.459 119.475ZM293.744 147.692V145.975C295.961 145.475 297.713 144.616 299.001 143.401C300.36 142.185 301.039 139.932 301.039 136.641V82.3534C301.039 79.1347 300.36 76.989 299.001 75.9161C297.713 74.8432 295.925 74.271 293.636 74.1994L293.422 72.4828L300.61 71.3027L318.957 68.2986V136.641C318.957 139.932 319.6 142.185 320.888 143.401C322.247 144.616 324.035 145.475 326.252 145.975V147.692H318.957H301.039H293.744ZM320.351 119.368L335.157 106.493C336.659 105.277 337.696 104.204 338.268 103.275C338.841 102.273 339.127 101.379 339.127 100.592C339.127 99.1619 338.268 98.089 336.552 97.3738C334.907 96.587 332.833 96.0148 330.329 95.6572L328.613 95.4426V93.2968H345.242H357.151V93.8332L322.819 123.123L320.351 119.368Z" fill="#F4F7BC"/>
<path d="M256.7 148.658C253.91 148.658 251.299 148.014 248.867 146.726C246.507 145.367 244.647 143.579 243.288 141.362C241.929 139.073 241.25 136.498 241.25 133.637C241.25 129.703 242.537 126.342 245.112 123.552C247.687 120.691 251.371 118.76 256.163 117.759C260.955 116.757 266.463 116.972 272.686 118.402L273.758 121.406C270.397 120.691 267.464 120.655 264.961 121.299C262.529 121.871 260.633 123.051 259.274 124.84C257.987 126.628 257.343 128.881 257.343 131.599C257.343 134.245 257.915 136.498 259.06 138.358C260.276 140.146 261.921 141.04 263.995 141.04C265.64 141.04 267.107 140.539 268.394 139.538C269.753 138.465 270.719 137.357 271.291 136.212L273.866 133.423C273.58 135.568 272.686 137.821 271.183 140.182C269.753 142.542 267.786 144.545 265.283 146.19C262.779 147.835 259.918 148.658 256.7 148.658ZM242.967 109.39C243.753 106.529 245.148 103.847 247.151 101.343C249.225 98.84 251.836 96.8015 254.983 95.228C258.202 93.5829 261.885 92.7246 266.034 92.653C270.397 92.5815 274.223 93.3683 277.514 95.0134C280.804 96.6585 283.343 98.9473 285.131 101.88C286.919 104.741 287.813 107.852 287.813 111.214V134.281C287.813 135.926 287.992 137.249 288.35 138.251C288.707 139.252 289.315 139.753 290.174 139.753C290.817 139.753 291.318 139.61 291.676 139.324L292.427 139.967C291.854 142.399 290.46 144.473 288.242 146.19C286.097 147.835 283.557 148.658 280.625 148.658C277.478 148.658 274.939 147.728 273.007 145.868C271.076 144.008 270.111 141.684 270.111 138.894V111.536C270.111 108.246 269.073 105.742 266.999 104.026C264.925 102.237 262.279 101.343 259.06 101.343C256.485 101.343 253.946 102.023 251.442 103.382C248.939 104.669 246.722 106.779 244.791 109.712L242.967 109.39Z" fill="#F4F7BC"/>
</svg>
