<svg width="284" height="319" viewBox="0 0 284 319" fill="none" xmlns="http://www.w3.org/2000/svg">
<path d="M88.4268 263.558C140.947 280.501 212.144 258.594 259.478 191.102" stroke="#9873E6" stroke-width="10.0544" stroke-linecap="round"/>
<path d="M73.1846 129.614C97.0259 80.6424 167.227 -14.6133 229.12 29.0936C295.29 75.8207 216.564 213.795 206.899 294.34" stroke="#00B5D9" stroke-width="10.0544" stroke-linecap="round"/>
<path d="M146 313.258V114.795C143.852 84.9395 120.741 39.5335 45.4795 96.7528" stroke="white" stroke-width="10.0544" stroke-linecap="round"/>
<path d="M164.528 248.646C150.567 269.48 108.884 301.152 60.9431 286.203C1.01753 267.517 16.5476 146.714 126.081 144.758" stroke="#02D174" stroke-width="10.0544" stroke-linecap="round"/>
<path d="M82.8535 238.519C55.7904 247.11 2.56616 249.731 6.17458 191.48" stroke="white" stroke-width="10.0544" stroke-linecap="round"/>
<path d="M6.17383 191.48C9.78225 133.23 78.1269 107.069 111.848 101.27" stroke="white" stroke-width="10.0544" stroke-linecap="round"/>
<path d="M42.9053 61.951C58.5847 47.3455 100.511 22.7739 142.781 41.3315C195.619 64.5285 176.288 137.987 174.999 172.138C173.659 207.646 166.623 303.588 275.52 253.972" stroke="#FF5454" stroke-width="10.0544" stroke-linecap="round"/>
<path d="M253.612 237.229C232.348 239.162 210.956 224.858 218.172 175.371C227.194 113.512 237.411 73.4694 220.013 46.4062" stroke="white" stroke-width="10.0544" stroke-linecap="round"/>
<path d="M197.553 202.421C171.779 223.685 116.106 259.125 99.6103 230.773C78.9908 195.333 186.506 105.859 278.006 45.9336" stroke="#FFBE1A" stroke-width="10.0544" stroke-linecap="round"/>
<path d="M87.1787 53.2573C94.3947 27.0096 131.051 -9.43942 171.775 11.6956C222.679 38.1144 196.95 84.1238 196.95 179.231" stroke="white" stroke-width="10.0544" stroke-linecap="round"/>
<path d="M160.178 185.674C138.485 201.354 94.0726 218.423 85.4323 194.695C76.792 170.968 90.7521 140.768 161.743 104.465" stroke="white" stroke-width="10.0544" stroke-linecap="round"/>
</svg>
