<svg width="575" height="133" viewBox="0 0 575 133" fill="none" xmlns="http://www.w3.org/2000/svg">
<circle cx="16.5342" cy="111.606" r="16.5342" fill="#CD0404"/>
<path d="M110.452 60.2061C121.098 67.2302 128.125 79.2959 128.125 93.0049C128.125 114.692 110.544 132.273 88.8564 132.273C68.7626 132.273 52.1957 117.181 49.8691 97.7139C53.7469 98.6874 57.8056 99.205 61.9854 99.2051C85.7408 99.2051 105.596 82.506 110.452 60.2061ZM61.9854 0C89.3801 0 111.588 22.2078 111.588 49.6025C111.588 53.2418 111.196 56.7897 110.452 60.2061C104.256 56.1181 96.8349 53.7364 88.8564 53.7363C67.1689 53.7363 49.5879 71.3174 49.5879 93.0049C49.5879 94.5986 49.6846 96.1699 49.8691 97.7139C28.3313 92.3068 12.3828 72.8175 12.3828 49.6025C12.3829 22.208 34.5908 0.000208566 61.9854 0Z" fill="#CD0404"/>
<path d="M543.235 112.772V76.5049H534.562V61.6565H543.235V44.3115H561.5V61.6565H574.771V76.5049H561.5V109.487C561.5 113.823 563.339 115.531 567.938 115.531H574.771V130.379H561.763C550.199 130.379 543.235 124.861 543.235 112.772Z" fill="#CD0404"/>
<path d="M507.539 87.2794C511.35 86.7538 513.583 84.9142 513.583 81.3664C513.583 76.7673 509.641 73.6137 502.808 73.6137C495.45 73.6137 491.508 77.4243 490.72 82.6804H472.718C474.163 70.3287 484.675 60.0793 503.071 60.0793C522.387 60.0793 531.191 70.0659 531.191 85.7026V116.451C531.191 121.05 531.454 125.517 531.98 130.379H514.897C514.372 127.883 514.109 125.123 513.978 122.232C510.167 128.014 502.94 131.956 493.479 131.956C480.47 131.956 469.695 123.94 469.695 110.932C469.695 96.3461 481.39 90.9587 495.319 88.9877L507.539 87.2794ZM487.04 109.881C487.04 115.531 491.377 118.553 497.552 118.553C506.356 118.553 513.452 113.56 513.452 103.705V98.1858L498.998 100.551C492.165 101.602 487.04 103.705 487.04 109.881Z" fill="#CD0404"/>
<path d="M469.189 61.2629V79.6591H464.853C453.289 79.6591 447.114 86.492 447.114 96.6099V130.38H428.586V61.6571H447.114V73.7461C450.661 66.1248 457.888 61.2629 466.824 61.2629H469.189Z" fill="#CD0404"/>
<path d="M418.568 61.6565V130.379H400.171V121.576C396.624 126.832 390.053 131.956 380.593 131.956C366.27 131.956 357.203 121.576 357.203 106.596V61.6565H375.599V102.391C375.599 110.669 379.279 116.582 387.294 116.582C394.39 116.582 400.171 111.458 400.171 101.865V61.6565H418.568Z" fill="#CD0404"/>
<path d="M309.749 34.4575V88.0693L333.401 61.6576H355.477L329.854 88.4635L356.002 130.381H335.11L317.108 101.604L309.749 109.356V130.381H291.484V34.4575H309.749Z" fill="#CD0404"/>
<path d="M241.257 34.4575V88.0693L264.909 61.6576H286.985L261.361 88.4635L287.51 130.381H266.617L248.615 101.604L241.257 109.356V130.381H222.992V34.4575H241.257Z" fill="#CD0404"/>
<path d="M189.687 87.2794C193.498 86.7538 195.732 84.9142 195.732 81.3664C195.732 76.7673 191.79 73.6137 184.957 73.6137C177.598 73.6137 173.656 77.4243 172.868 82.6804H154.866C156.311 70.3287 166.824 60.0793 185.22 60.0793C204.536 60.0793 213.34 70.0659 213.34 85.7026V116.451C213.34 121.05 213.602 125.517 214.128 130.379H197.046C196.52 127.883 196.257 125.123 196.126 122.232C192.315 128.014 185.088 131.956 175.627 131.956C162.619 131.956 151.844 123.94 151.844 110.932C151.844 96.3461 163.538 90.9587 177.467 88.9877L189.687 87.2794ZM169.189 109.881C169.189 115.531 173.525 118.553 179.701 118.553C188.505 118.553 195.6 113.56 195.6 103.705V98.1858L181.146 100.551C174.313 101.602 169.189 103.705 169.189 109.881Z" fill="#CD0404"/>
</svg>
