<svg width="182" height="39" viewBox="0 0 182 39" fill="none" xmlns="http://www.w3.org/2000/svg">
<circle cx="4.69854" cy="31.7149" r="4.69854" fill="#F4F7BC"/>
<path d="M31.3984 17.1074C34.4255 19.1031 36.4246 22.5318 36.4248 26.4287C36.4248 32.5916 31.4285 37.5878 25.2656 37.5879C19.5557 37.5879 14.8498 33.2994 14.1885 27.7676C15.2891 28.0435 16.4408 28.1914 17.627 28.1914C24.3779 28.1914 30.0188 23.4449 31.3984 17.1074ZM17.627 0C25.4117 0 31.7227 6.31091 31.7227 14.0957C31.7226 15.1295 31.6097 16.1369 31.3984 17.1074C29.6384 15.9471 27.5314 15.2706 25.2656 15.2705C19.1028 15.2705 14.1067 20.266 14.1064 26.4287C14.1064 26.8818 14.136 27.3287 14.1885 27.7676C8.06597 26.2325 3.53131 20.6942 3.53125 14.0957C3.53125 6.31101 9.8423 0.000154818 17.627 0Z" fill="#F4F7BC"/>
<path d="M175.49 38.0429C173.786 38.0429 172.444 37.4878 171.463 36.3778C170.508 35.2677 170.03 33.6671 170.03 31.5761V19.4556H167.203V18.8361C168.881 18.2165 170.456 17.3259 171.927 16.1642C173.425 15.0025 174.664 13.6213 175.645 12.0208H176.458L176.497 30.9565C176.497 31.9891 176.716 32.841 177.155 33.5122C177.594 34.1576 178.188 34.4803 178.936 34.4803C179.298 34.4803 179.659 34.4029 180.021 34.248C180.408 34.0673 180.821 33.822 181.26 33.5122L181.763 33.6284C181.195 34.945 180.382 36.0164 179.324 36.8425C178.291 37.6427 177.013 38.0429 175.49 38.0429ZM167.203 18.8361L171.075 17.9842H181.686V19.4556H167.203V18.8361Z" fill="#F4F7BC"/>
<path d="M155.162 37.9655C154.155 37.9655 153.213 37.7331 152.335 37.2685C151.483 36.778 150.812 36.1326 150.322 35.3323C149.831 34.5062 149.586 33.5768 149.586 32.5442C149.586 31.1243 150.051 29.911 150.98 28.9042C151.909 27.8716 153.239 27.1746 154.968 26.8131C156.698 26.4517 158.686 26.5292 160.932 27.0455L161.319 28.1297C160.106 27.8716 159.047 27.8587 158.144 28.091C157.266 28.2975 156.582 28.7235 156.091 29.3689C155.627 30.0143 155.394 30.8275 155.394 31.8085C155.394 32.7636 155.601 33.5768 156.014 34.248C156.453 34.8934 157.047 35.2161 157.795 35.2161C158.389 35.2161 158.918 35.0354 159.383 34.674C159.873 34.2868 160.222 33.8866 160.428 33.4736L161.358 32.4668C161.255 33.2412 160.932 34.0544 160.39 34.9063C159.873 35.7582 159.164 36.4811 158.26 37.0748C157.356 37.6686 156.324 37.9655 155.162 37.9655ZM150.206 23.7927C150.489 22.7601 150.993 21.792 151.716 20.8885C152.464 19.9849 153.407 19.2492 154.543 18.6812C155.704 18.0875 157.034 17.7777 158.531 17.7519C160.106 17.726 161.487 18.01 162.674 18.6038C163.862 19.1975 164.778 20.0236 165.424 21.0821C166.069 22.1147 166.392 23.2377 166.392 24.451V32.7765C166.392 33.3703 166.456 33.8479 166.586 34.2093C166.715 34.5707 166.934 34.7514 167.244 34.7514C167.476 34.7514 167.657 34.6998 167.786 34.5965L168.057 34.8289C167.85 35.7066 167.347 36.4553 166.547 37.0748C165.772 37.6686 164.856 37.9655 163.797 37.9655C162.662 37.9655 161.745 37.6299 161.048 36.9587C160.351 36.2875 160.003 35.4485 160.003 34.4416V24.5672C160.003 23.3797 159.628 22.4761 158.88 21.8565C158.131 21.2111 157.176 20.8885 156.014 20.8885C155.085 20.8885 154.168 21.1337 153.265 21.6242C152.361 22.0889 151.561 22.8504 150.864 23.9089L150.206 23.7927Z" fill="#F4F7BC"/>
<path d="M132.523 37.6169V36.9973C133.298 36.8166 133.93 36.5068 134.421 36.068C134.911 35.6291 135.157 34.8159 135.157 33.6284V21.9726C135.157 20.7851 134.911 19.9719 134.421 19.5331C133.93 19.0942 133.298 18.7844 132.523 18.6037V17.9841H135.157H141.623V33.6284C141.623 34.8159 141.856 35.6291 142.32 36.068C142.811 36.5068 143.456 36.8166 144.257 36.9973V37.6169H141.623H135.157H132.523ZM141.352 25.6901C141.533 24.0637 141.998 22.618 142.746 21.3531C143.495 20.0623 144.463 19.0942 145.651 18.4488C146.864 17.8034 148.168 17.6098 149.562 17.868L148.594 23.7539H148.168C147.083 23.2376 146.064 23.0956 145.109 23.328C144.153 23.5345 143.353 24.0637 142.708 24.9156C142.062 25.7675 141.701 26.8647 141.623 28.2071L141.352 25.6901Z" fill="#F4F7BC"/>
<path d="M116.525 37.8492C115.389 37.8492 114.356 37.604 113.427 37.1135C112.498 36.623 111.749 35.9002 111.181 34.945C110.639 33.964 110.368 32.8152 110.368 31.4986V21.9726C110.368 20.7851 110.123 19.9719 109.632 19.5331C109.167 19.0942 108.548 18.7844 107.773 18.6037V17.9841H110.368H116.835V30.608C116.835 31.7438 117.08 32.5699 117.57 33.0863C118.061 33.6026 118.719 33.8736 119.545 33.8995C120.139 33.8995 120.733 33.7833 121.327 33.5509C121.946 33.3186 122.514 32.983 123.03 32.5441L123.379 33.1637C122.759 34.4545 121.856 35.5646 120.668 36.4939C119.507 37.3975 118.125 37.8492 116.525 37.8492ZM124.463 37.6169C123.611 36.6875 123.005 35.5646 122.643 34.248V21.9726C122.643 20.7851 122.45 19.9719 122.062 19.5331C121.675 19.0942 121.172 18.7844 120.552 18.6037V17.9841H122.643H129.071V33.6284C129.071 34.7901 129.317 35.6033 129.807 36.068C130.298 36.5068 130.93 36.8166 131.704 36.9973V37.6169H129.071H124.463Z" fill="#F4F7BC"/>
<path d="M93.2895 27.4327L98.401 24.1025L104.248 34.0544C104.842 35.0354 105.436 35.7324 106.03 36.1455C106.623 36.5327 107.269 36.8167 107.966 36.9974H108.043V37.617H105.758H98.6334L93.2895 27.4327ZM83.6474 37.617V36.9974C84.4477 36.8167 85.0802 36.5069 85.5449 36.0681C86.0354 35.6292 86.2806 34.816 86.2806 33.6285V14.0344C86.2806 12.8727 86.0354 12.0983 85.5449 11.711C85.0802 11.3238 84.4348 11.1173 83.6087 11.0915L83.5312 10.4719L86.1257 10.0459L92.7474 8.96167V33.6285C92.7474 34.816 92.9798 35.6292 93.4444 36.0681C93.9349 36.5069 94.5803 36.8167 95.3806 36.9974V37.617H92.7474H86.2806H83.6474ZM93.2508 27.394L98.5947 22.7472C99.1368 22.3083 99.5111 21.9211 99.7176 21.5855C99.9242 21.2241 100.027 20.9014 100.027 20.6174C100.027 20.1011 99.7176 19.7139 99.0981 19.4557C98.5043 19.1717 97.7556 18.9652 96.8521 18.8361L96.2325 18.7587V17.9842H102.235H106.533V18.1778L94.1415 28.7493L93.2508 27.394Z" fill="#F4F7BC"/>
<path d="M69.9067 27.4327L75.0182 24.1025L80.8655 34.0544C81.4592 35.0354 82.053 35.7324 82.6467 36.1455C83.2405 36.5327 83.8859 36.8167 84.5829 36.9974H84.6604V37.617H82.3757H75.2506L69.9067 27.4327ZM60.2646 37.617V36.9974C61.0649 36.8167 61.6974 36.5069 62.1621 36.0681C62.6526 35.6292 62.8978 34.816 62.8978 33.6285V14.0344C62.8978 12.8727 62.6526 12.0983 62.1621 11.711C61.6974 11.3238 61.052 11.1173 60.2259 11.0915L60.1484 10.4719L62.7429 10.0459L69.3646 8.96167V33.6285C69.3646 34.816 69.5969 35.6292 70.0616 36.0681C70.5521 36.5069 71.1975 36.8167 71.9978 36.9974V37.617H69.3646H62.8978H60.2646ZM69.868 27.394L75.2118 22.7472C75.754 22.3083 76.1283 21.9211 76.3348 21.5855C76.5413 21.2241 76.6446 20.9014 76.6446 20.6174C76.6446 20.1011 76.3348 19.7139 75.7152 19.4557C75.1215 19.1717 74.3728 18.9652 73.4693 18.8361L72.8497 18.7587V17.9842H78.8518H83.1501V18.1778L70.7587 28.7493L69.868 27.394Z" fill="#F4F7BC"/>
<path d="M47.6152 37.9655C46.6084 37.9655 45.6662 37.7331 44.7884 37.2685C43.9365 36.778 43.2653 36.1326 42.7748 35.3323C42.2843 34.5062 42.0391 33.5768 42.0391 32.5442C42.0391 31.1243 42.5037 29.911 43.4331 28.9042C44.3625 27.8716 45.692 27.1746 47.4216 26.8131C49.1513 26.4517 51.1391 26.5292 53.385 27.0455L53.7723 28.1297C52.5589 27.8716 51.5005 27.8587 50.5969 28.091C49.7192 28.2975 49.0351 28.7235 48.5446 29.3689C48.0799 30.0143 47.8476 30.8275 47.8476 31.8085C47.8476 32.7636 48.0541 33.5768 48.4671 34.248C48.906 34.8934 49.4998 35.2161 50.2484 35.2161C50.8422 35.2161 51.3714 35.0354 51.8361 34.674C52.3266 34.2868 52.6751 33.8866 52.8816 33.4736L53.811 32.4668C53.7077 33.2412 53.385 34.0544 52.8429 34.9063C52.3266 35.7582 51.6167 36.4811 50.7131 37.0748C49.8096 37.6686 48.7769 37.9655 47.6152 37.9655ZM42.6586 23.7927C42.9426 22.7601 43.446 21.792 44.1688 20.8885C44.9175 19.9849 45.8598 19.2492 46.9957 18.6812C48.1574 18.0875 49.4869 17.7777 50.9842 17.7519C52.5589 17.726 53.9401 18.01 55.1276 18.6038C56.3151 19.1975 57.2315 20.0236 57.8769 21.0821C58.5223 22.1147 58.845 23.2377 58.845 24.451V32.7765C58.845 33.3703 58.9096 33.8479 59.0386 34.2093C59.1677 34.5707 59.3871 34.7514 59.6969 34.7514C59.9293 34.7514 60.11 34.6998 60.2391 34.5965L60.5101 34.8289C60.3036 35.7066 59.8002 36.4553 58.9999 37.0748C58.2254 37.6686 57.309 37.9655 56.2506 37.9655C55.1147 37.9655 54.1982 37.6299 53.5012 36.9587C52.8042 36.2875 52.4557 35.4485 52.4557 34.4416V24.5672C52.4557 23.3797 52.0813 22.4761 51.3327 21.8565C50.584 21.2111 49.6288 20.8885 48.4671 20.8885C47.5378 20.8885 46.6213 21.1337 45.7178 21.6242C44.8142 22.0889 44.014 22.8504 43.3169 23.9089L42.6586 23.7927Z" fill="#F4F7BC"/>
</svg>
